<svg width="244" height="105" viewBox="0 0 244 105" fill="none" xmlns="http://www.w3.org/2000/svg">
<path opacity="0.2" d="M241.303 100.697C241.303 102.952 187.516 104.794 121.152 104.794C54.7877 104.794 1 102.966 1 100.697C1 98.4283 54.7877 96.5996 121.152 96.5996C187.516 96.5996 241.303 98.4283 241.303 100.697Z" fill="#3D89BA"/>
<path fill-rule="evenodd" clip-rule="evenodd" d="M202.288 58.5914C205.436 56.0661 209.186 54.6059 213.211 54.6059C223.979 54.6059 232.769 65.085 233.388 78.2956C233.422 78.433 233.422 78.5876 233.422 78.7423V85.1672C233.422 86.5071 232.322 87.6066 230.98 87.6066H229.088C226.594 95.4917 220.418 101.058 213.211 101.058H200.895C193.67 101.058 187.478 95.4573 185.001 87.555C184.829 87.5894 184.674 87.6066 184.485 87.6066H178.791C176.297 95.4917 170.122 101.058 162.914 101.058H150.615C141.189 101.058 133.551 91.5405 133.551 79.7902C133.551 68.0398 141.189 58.5227 150.615 58.5227C152.783 58.5227 154.864 59.0209 156.773 59.9486C158.683 59.0209 160.764 58.5227 162.931 58.5227C170.947 58.5227 177.69 65.4286 179.513 74.7224H184.33C186.153 65.4286 192.879 58.5227 200.912 58.5227C201.376 58.5227 201.841 58.5571 202.288 58.5914ZM120.513 82.0406C120.547 82.1952 120.547 82.3498 120.547 82.4873V85.7341V90.4583C120.547 91.7982 119.446 92.8977 118.105 92.8977H113.701C110.57 97.8452 105.72 101.04 100.267 101.04H87.9507C78.5244 101.04 70.887 91.5233 70.887 79.773C70.887 68.0226 78.5244 58.5055 87.9507 58.5055C88.4151 58.5055 88.8796 58.5227 89.344 58.5742C92.4919 56.049 96.2417 54.5887 100.267 54.5887C111.431 54.5887 120.478 65.8581 120.478 79.773L120.513 82.0406ZM67.2747 80.0994C68.3756 80.3399 69.2184 81.3191 69.2184 82.4873V90.4754C69.2184 91.8154 68.1175 92.9148 66.7758 92.9148H63.6452C60.5146 97.8624 55.6638 101.058 50.2109 101.058H37.8948C28.4685 101.058 20.8311 91.5405 20.8311 79.7902C20.8311 68.0398 28.4685 58.5227 37.8948 58.5227C40.0622 58.5227 42.1435 59.0209 44.0529 59.9486C45.9622 59.0209 48.0436 58.5227 50.2109 58.5227C59.6373 58.5227 67.2747 68.0398 67.2747 79.7902C67.2747 79.8932 67.2747 79.9963 67.2747 80.0994Z" fill="#12406D"/>
<path fill-rule="evenodd" clip-rule="evenodd" d="M2.95082 83.3093C3.24324 82.519 3.62167 81.4883 3.60447 80.2171C3.57007 78.4648 3.14004 78.4648 3.00243 76.5751H6.68351C6.99314 76.5751 7.23395 76.3346 7.23395 76.0254V71.473C7.23395 71.2153 6.92433 70.6828 6.80392 70.6141L2.17676 68.9134C2.10796 65.2886 3.26045 60.9767 4.49894 56.9912C5.2386 54.5862 8.40365 45.4298 13.5469 43.2653C23.0248 39.2798 37.4223 32.8205 53.9012 29.7799C74.5256 18.5449 77.8971 16.0883 99.1751 8.06576C111.164 1.17703 181.312 2.56852 214.923 6.46812C219.567 6.74299 217.916 11.8623 217.503 14.4735L227.274 27.0656L234.016 29.5909C234.928 29.9345 235.599 30.5873 235.943 31.3775L239.194 37.2699C239.951 38.8847 239.211 39.9326 238.351 41.2382C238.919 42.5438 241.551 49.6902 241.757 55.3592C245.645 58.3827 243.408 68.5354 240.914 70.992L233.432 78.7397C232.984 65.323 224.109 54.6033 213.237 54.6033C202.074 54.6033 193.026 65.8727 193.026 79.7876C193.026 81.8319 191.546 85.6284 188.829 85.7315H204.241H120.591L120.522 79.7876C120.522 65.8727 111.474 54.6033 100.31 54.6033C89.1468 54.6033 80.0988 65.8727 80.0988 79.7876C80.0988 81.8319 79.6 85.7658 77.0198 85.7315H6.09867C0.852258 85.7487 2.31437 85.0443 2.95082 83.3093Z" fill="#E4E2DE"/>
<path fill-rule="evenodd" clip-rule="evenodd" d="M55.4422 85.7528H9.29102L14.5546 66.083C15.1395 63.9356 15.7243 63.3 17.9433 63.3L38.2409 63.2828C40.4771 63.2828 41.7155 64.6228 42.9368 66.4781L55.4422 85.7528Z" fill="#152F4E"/>
<path fill-rule="evenodd" clip-rule="evenodd" d="M54.7833 85.7508H11.9863L16.2867 69.7229C16.8715 67.5583 17.4564 66.9399 19.6753 66.9399L39.9729 66.9227C42.2091 66.9227 43.4476 68.2627 44.6689 70.118L54.7833 85.7508Z" fill="#92C1DB"/>
<path fill-rule="evenodd" clip-rule="evenodd" d="M94.9961 9.73378C96.3206 9.21841 97.6967 8.65151 99.1588 8.06743C118.751 -1.94786 192.407 3.63528 214.907 6.46979C217.005 6.59004 217.814 7.70667 218.037 9.13252C171.8 6.16057 128.814 4.37397 94.9961 9.73378Z" fill="#FAF9F4"/>
<path fill-rule="evenodd" clip-rule="evenodd" d="M8.9873 46.9262C9.91618 45.3114 10.7246 44.2291 11.5503 43.2155C17.3644 36.1894 45.1789 31.3965 53.8828 29.7816C70.9981 27.9263 91.4161 29.7645 112.832 32.7192C102.803 33.9046 85.7913 37.1857 74.5932 41.8756L48.6192 47.1323L8.9873 46.9262Z" fill="white"/>
<path fill-rule="evenodd" clip-rule="evenodd" d="M8.45779 46.4833H52.476V49.043C52.6136 48.9742 52.7857 48.9227 52.9405 48.8883L73.7541 40.5909C74.4766 40.4363 75.285 40.6597 75.8011 41.2266C76.9708 42.3432 83.6965 46.0023 80.9959 48.0638L68.2841 60.5528C67.9056 60.8964 67.4068 61.0853 66.8392 61.0853L55.4347 59.8657C55.0734 59.8657 54.7122 59.7798 54.3854 59.608L47.5909 54.6776C47.4016 54.5746 46.6448 54.2825 45.8535 54.2825H11.7949C11.038 54.2825 10.2983 54.7292 10.1435 54.8838L6.68605 59.608C6.51404 59.7798 6.34203 59.8485 6.15281 59.8485L3.14258 61.3259C5.00032 55.5538 6.11841 50.9842 8.45779 46.4833Z" fill="white"/>
<path fill-rule="evenodd" clip-rule="evenodd" d="M4.93164 55.8238C5.94652 51.134 8.01068 47.0454 11.5026 43.1802L13.3259 44.2796C13.5839 44.3827 13.7903 44.6404 13.9451 44.984C13.9279 46.427 13.1711 51.2886 12.397 52.0788L8.93955 55.5833C8.76754 55.7551 8.59553 55.8238 8.40631 55.8238H4.93164Z" fill="#003C50"/>
<path fill-rule="evenodd" clip-rule="evenodd" d="M53.8936 29.7499C67.431 21.2292 84.1851 12.5538 99.1675 7.88117C115.337 4.87487 160.645 4.27361 188.322 7.89835C199.899 9.41009 225.838 24.0121 205.661 27.4479C204.371 27.6712 203.184 27.843 201.481 27.9805L135.015 33.3575C131.558 34.0961 127.309 34.1133 124.35 34.1477C124.299 34.1305 124.23 34.1133 124.178 34.0961C119.637 33.9759 115.096 33.22 110.486 32.3954C98.1526 30.1622 65.1604 27.7915 53.8936 29.7499Z" fill="#12406D"/>
<path fill-rule="evenodd" clip-rule="evenodd" d="M55.3984 28.8409C67.7662 21.1104 82.611 13.2253 96.3032 8.99933C104.044 7.57348 120.643 6.57711 138.343 6.49121C132.994 13.3799 117.014 28.1538 110.701 31.7613C109.583 31.5724 108.482 31.3834 107.364 31.1944C96.114 29.1845 65.7192 27.0715 55.3984 28.8409ZM143.968 6.49121C151.864 6.54275 159.811 6.78325 167.156 7.24708C169.237 14.4107 170.286 21.6945 170.63 29.0471L139.651 31.3662C141.371 29.8717 141.749 27.5869 139.513 24.0137C139.135 23.1375 131.618 22.9829 128.504 23.4639C132.856 17.2967 139.565 10.3393 143.968 6.49121ZM171.026 7.52194C175.567 7.86552 179.799 8.31217 183.583 8.86189C195.039 10.5282 221.202 25.2677 195.624 27.1918L176.754 28.6004C175.653 21.4197 174.019 14.3591 171.026 7.52194Z" fill="#E3F0F5"/>
<path fill-rule="evenodd" clip-rule="evenodd" d="M205.93 24.0415C204.76 25.5704 201.612 26.7386 195.626 27.1852L176.756 28.5939C176.653 27.9239 176.55 27.2711 176.429 26.6012C186.458 26.2232 196.383 25.4845 205.93 24.0415ZM170.65 29.0406L139.67 31.3597C140.874 30.329 141.425 28.9031 140.891 26.9276C150.593 26.9619 160.57 27.0134 170.529 26.7729C170.564 27.5288 170.598 28.2847 170.65 29.0406ZM110.72 31.7548C109.602 31.5658 108.501 31.3769 107.383 31.1879C101.93 30.2259 96.271 29.7449 90.7666 29.2639C98.7824 27.9755 107.676 27.3742 117.153 27.1165C114.59 29.178 112.337 30.8272 110.72 31.7548Z" fill="#92C1DB"/>
<path fill-rule="evenodd" clip-rule="evenodd" d="M55.3984 28.8409C67.7662 21.1104 82.611 13.2253 96.3032 8.99933C104.044 7.57348 120.643 6.57711 138.343 6.49121C136.365 9.05086 132.908 12.6928 129.037 16.4378C105.472 13.5002 91.418 15.9568 70.398 28.2053C64.1883 28.1022 58.7527 28.274 55.3984 28.8409ZM143.968 6.49121C147.34 6.50839 150.728 6.55993 154.065 6.663C158.538 6.78325 162.958 6.97222 167.156 7.24708C167.792 9.4288 168.325 11.6105 168.772 13.8094C157.179 13.5517 145.207 14.1015 134.559 15.9224C137.879 12.229 141.336 8.79318 143.968 6.49121ZM171.026 7.52194C175.567 7.86552 179.799 8.31217 183.583 8.86189C188.726 9.61777 196.845 12.9848 201.902 16.6611C193.818 15.3899 183.892 14.3591 173.434 13.9468C172.746 11.7823 171.955 9.63495 171.026 7.52194Z" fill="#92C1DB"/>
<path fill-rule="evenodd" clip-rule="evenodd" d="M53.6563 44.2605L74.5387 39.8455C75.2268 39.6909 75.9836 39.8971 76.4825 40.4468C77.5833 41.5119 82.8126 44.9648 80.2496 46.9232L68.2086 55.3065C67.8474 55.6157 67.3657 55.8219 66.8497 55.8219H56.0301C55.686 55.8219 55.3592 55.736 55.0324 55.5814L48.5819 52.0769C47.5326 51.51 47.2746 50.2044 48.0486 49.3111L52.521 44.982C52.779 44.6212 53.1746 44.3636 53.6563 44.2605Z" fill="#003C50"/>
<path fill-rule="evenodd" clip-rule="evenodd" d="M12.5279 44.2644H54.1208V52.0636H10.1025L12.5279 44.2644Z" fill="#152F4E"/>
<path fill-rule="evenodd" clip-rule="evenodd" d="M6.80258 70.6167L3.22471 69.2939C3.05269 69.208 2.76027 70.1185 2.72587 70.4277C2.65706 71.029 2.84627 75.4611 3.67194 76.5606H6.68217C7.55944 76.5777 7.45623 70.9602 6.80258 70.6167Z" fill="#152F4E"/>
<path fill-rule="evenodd" clip-rule="evenodd" d="M47.0193 85.7522H13.3906L14.4399 80.0316C14.9043 77.5235 15.6096 76.8364 17.8286 76.8192L39.3475 76.802C41.5836 76.802 42.8221 78.3481 44.0434 80.4955L47.0193 85.7522Z" fill="white"/>
<path fill-rule="evenodd" clip-rule="evenodd" d="M54.5051 45.9453L71.9473 42.7844C72.5321 42.6813 73.1514 42.8359 73.5642 43.2138L76.3852 45.4127C77.1421 45.9968 77.1937 46.8214 76.2648 47.4227L66.6321 53.8648C66.3396 54.0881 65.9268 54.2255 65.4968 54.2255H56.4661C56.1908 54.2255 55.8984 54.174 55.6404 54.0537L51.4777 51.5284C50.6004 51.1161 50.394 50.1713 51.0304 49.5529L53.559 46.4435C53.7654 46.203 54.1095 46.014 54.5051 45.9453Z" fill="#C8D3D9"/>
<path fill-rule="evenodd" clip-rule="evenodd" d="M76.9442 46.4611C76.9614 46.8046 76.6174 47.1826 76.2561 47.4231L67.277 53.4357C67.0018 53.6418 66.6922 53.6075 66.2794 53.6075H57.8507C57.5927 53.6075 57.3175 53.5559 57.0766 53.4357C55.9413 52.7485 53.7912 51.6491 52.8623 50.8932C59.5192 48.0243 69.668 46.8734 76.9442 46.4611Z" fill="#83929B"/>
<path fill-rule="evenodd" clip-rule="evenodd" d="M5.34302 54.2267C3.65728 54.2267 8.26725 44.5035 10.6066 45.036L11.7247 45.9293C11.9139 45.998 12.0687 46.187 12.172 46.4275C12.4128 47.7846 12.1031 50.7222 11.2947 51.5124L8.74888 54.0377C8.62847 54.158 8.49086 54.2095 8.35325 54.2095L5.34302 54.2267Z" fill="#C8D3D9"/>
<path fill-rule="evenodd" clip-rule="evenodd" d="M5.75293 53.5054C5.82174 52.6464 6.25177 51.3408 7.02583 49.8291L10.9821 50.4132C11.2574 50.4475 11.2574 50.7396 11.1197 50.8598L8.47074 53.3851C8.31593 53.4538 8.14392 53.4882 7.9891 53.4882L5.75293 53.5054Z" fill="#83929B"/>
<path fill-rule="evenodd" clip-rule="evenodd" d="M101.516 97.9946C110.134 97.9946 117.1 89.3021 117.1 78.5653C117.1 67.8457 110.117 59.136 101.516 59.136C92.9154 59.136 85.9317 67.8285 85.9317 78.5653C85.9145 89.3021 92.8982 97.9946 101.516 97.9946ZM101.516 92.7722C107.812 92.7722 112.903 86.416 112.903 78.5825C112.903 70.7317 107.795 64.3755 101.516 64.3755C95.2204 64.3755 90.1288 70.7317 90.1288 78.5825C90.1116 86.416 95.2204 92.7722 101.516 92.7722Z" fill="#6B7193"/>
<path fill-rule="evenodd" clip-rule="evenodd" d="M103.442 85.989C103.098 85.1301 102.84 84.6834 102.686 84.4258C102.273 83.7214 102.324 83.4809 102.858 82.8109C103.184 82.3986 103.46 82.0379 103.718 81.5912C104.045 81.0587 104.199 80.7667 104.767 80.8697C105.128 80.9384 105.438 81.2477 106.074 81.8833C106.917 82.725 107.691 83.5153 108.448 84.4601C108.999 85.1473 109.497 85.8516 109.927 86.5903C110.925 88.0849 111.011 87.5695 111.837 85.8344C112.078 85.3191 112.284 84.7693 112.456 84.2196C112.92 82.8109 112.886 82.7938 111.837 82.2956C110.203 81.5225 108.809 80.9384 107.055 80.4574C106.212 80.2341 105.713 80.1654 105.403 80.1138C104.612 80.0108 104.354 79.8218 104.406 78.98C104.406 78.8254 104.423 78.6021 104.406 78.3101C104.337 76.7811 104.389 76.7811 105.575 76.5922C105.868 76.5406 106.298 76.4719 106.934 76.283C108.689 75.7332 110.117 75.0804 111.751 74.2902C112.714 73.8264 112.748 73.8092 112.267 72.4692C111.906 71.4557 111.372 70.4937 110.856 69.5317C110.564 68.9819 110.615 68.5868 109.583 70.2703C109.119 70.9919 108.637 71.7134 108.104 72.4005C107.399 73.311 106.659 74.1012 105.885 74.9258C105.249 75.613 104.956 75.9394 104.578 75.9909C104.027 76.094 103.855 75.8191 103.546 75.3381C103.236 74.8399 102.892 74.462 102.479 74.0325C101.912 73.4484 101.894 73.1908 102.273 72.4864C103.511 70.236 103.976 67.9512 104.354 65.4603C104.526 64.2749 104.561 64.0688 103.116 63.8283C101.963 63.6221 100.811 63.6393 99.6582 63.8626C98.5917 64.0688 98.7465 64.1375 99.383 65.7695C100.105 67.5904 100.501 69.9096 100.501 71.8852C100.501 72.6926 100.398 73.0877 99.555 73.311C98.9185 73.4828 98.4025 73.7577 97.9036 74.2043C97.1812 74.8743 96.7684 74.4276 96.4071 73.7233C95.9083 72.7269 95.3578 71.7821 94.7214 70.8888C94.7042 70.8544 92.7948 68.3807 92.7604 68.3807C92.4164 68.415 90.6275 72.6239 90.3867 73.4656C89.9738 74.943 89.8878 74.9087 91.1435 75.1148C92.2444 75.3038 93.2765 75.5614 94.343 75.905C96.4071 76.5922 96.3727 76.764 96.2179 77.8978C96.0975 78.7224 96.1319 79.3408 96.3555 80.131C96.6307 81.1274 96.6651 81.2477 95.203 82.0379C93.8957 82.7422 92.64 83.2576 91.2295 83.6871C90.3695 83.9447 90.4211 83.8073 90.7307 84.6491C91.1435 85.7142 91.5736 86.6934 92.1756 87.6554C92.8465 88.7377 92.9153 88.5143 93.5861 87.7069C94.7042 86.3841 95.6331 84.9583 96.4243 83.4294C96.8028 82.6907 97.1984 82.2269 97.9552 82.914C98.5401 83.3435 99.1077 83.6183 99.7614 83.8073C101.069 84.0822 100.759 85.5424 100.639 86.7277C100.484 88.3254 100.105 89.8886 99.4862 91.3832C98.8153 93.0152 98.6433 93.1011 99.7442 93.2557C100.914 93.4618 102.101 93.479 103.27 93.2557C104.801 92.9637 104.767 92.7232 104.647 91.3832C104.457 89.4248 104.165 87.8444 103.442 85.989ZM99.7442 82.0379C101.275 82.0379 102.531 80.4918 102.531 78.5849C102.531 76.6781 101.292 75.1148 99.7442 75.1148C98.2133 75.1148 96.9748 76.6609 96.9748 78.5849C96.9748 80.4918 98.2133 82.0379 99.7442 82.0379ZM105.868 91.2973C106.091 93.5649 106.143 93.9944 103.511 94.4926C102.204 94.7331 100.845 94.7331 99.555 94.4926C97.9208 94.2005 97.4564 93.9085 97.6284 92.8778C97.7316 92.3109 98.1445 91.5378 98.3681 90.9709C98.9357 89.5966 99.2798 88.1364 99.4346 86.659C99.5722 84.9583 99.813 85.3706 98.3165 84.6491C97.1468 84.0822 97.6628 83.8417 96.8716 85.1988C96.0631 86.5903 95.1858 87.7241 94.1538 88.961C93.6033 89.631 93.3109 89.9745 92.812 89.9917C92.296 90.0089 92.0036 89.6653 91.5219 88.9094C90.7307 87.6897 90.1458 86.4872 89.6126 85.1129C88.9417 83.4122 89.1826 83.0686 90.9027 82.5533C92.2444 82.141 93.4313 81.6428 94.6698 80.9728C95.2546 80.6636 95.2546 80.6292 95.203 80.4746C94.9278 79.5126 94.8762 78.7395 95.031 77.7432C95.0654 77.4683 95.0826 77.4339 93.9817 77.056C92.7432 76.6437 91.5563 76.386 90.2662 76.2143C88.5977 75.9737 88.6837 75.0117 89.045 73.8092C89.475 72.3662 91.2295 67.3499 92.64 67.1782C93.0701 67.1266 93.3969 67.3499 93.8269 67.8138C94.9794 69.0678 95.9943 70.4765 96.8544 71.9539C97.5768 73.2251 97.422 73.0362 98.1617 72.5723C99.6066 71.7993 99.3658 72.7785 99.2109 70.4765C99.1077 69.0163 98.7981 67.5733 98.2649 66.2161C97.5424 64.3608 97.0264 63.1583 99.4346 62.6773C100.725 62.4196 102.049 62.4024 103.339 62.6257C105.954 63.0724 105.902 63.4503 105.575 65.6321C105.266 67.6763 104.922 69.3771 104.165 71.3183C103.305 73.4313 103.27 72.9846 104.027 73.8951C104.681 74.6682 104.354 74.7884 105.008 74.0669C105.765 73.2595 106.47 72.5036 107.141 71.6275C107.64 70.9747 108.104 70.2875 108.551 69.5832C109.497 68.0715 110.547 66.3364 111.854 68.7586C112.439 69.8237 113.006 70.8716 113.419 72.0226C114.279 74.3933 114.193 74.4276 112.284 75.3553C110.598 76.1799 109.102 76.8499 107.296 77.4168C106.332 77.726 105.575 77.4511 105.61 78.2585C105.644 79.3236 106.04 78.9113 107.364 79.2721C109.171 79.7703 110.65 80.3887 112.336 81.1789C114.331 82.1238 114.383 82.141 113.591 84.5632C113.402 85.1473 113.178 85.7313 112.92 86.2982C112.662 86.8652 112.387 87.4149 112.06 87.9646C111.355 89.1843 110.942 89.5622 110.254 89.1671C109.91 88.9782 109.687 88.5659 109.308 87.9474C109.188 87.7241 109.033 87.4836 108.861 87.1916C108.431 86.4872 107.966 85.8172 107.468 85.1816C106.745 84.2711 105.988 83.5153 105.18 82.7079C104.526 82.0551 104.801 82.1238 104.251 82.8797C103.597 83.9963 103.58 83.1373 104.526 85.508C105.335 87.4836 105.661 89.2015 105.868 91.2973Z" fill="white"/>
<path fill-rule="evenodd" clip-rule="evenodd" d="M13.3701 85.7469H53.7245C53.7245 87.4477 52.3312 88.8563 50.611 88.8563H16.4836C14.7806 88.8391 13.3701 87.4477 13.3701 85.7469Z" fill="#92C1DB"/>
<path fill-rule="evenodd" clip-rule="evenodd" d="M57.3124 52.252C58.1036 52.252 58.7057 51.7538 59.0841 51.0838L60.5118 50.8605V50.8777C60.0302 52.3035 58.9465 53.4889 57.3296 53.4889C56.0567 53.4889 55.2482 52.7845 54.8526 51.7882L56.1083 51.582C56.3491 51.9771 56.7447 52.252 57.3124 52.252ZM59.5142 49.7782C59.5314 49.6408 59.5486 49.5034 59.5486 49.3488C59.5658 48.988 59.5142 48.6273 59.4109 48.3009C59.2045 47.6652 58.7573 47.2014 58.0176 47.2014C57.0028 47.2014 56.2975 48.0088 55.9707 48.988C55.8503 49.3488 55.7815 49.7439 55.7643 50.1218C55.7643 50.2077 55.7643 50.3108 55.7643 50.3967L54.5602 50.5857C54.543 50.4139 54.543 50.2421 54.543 50.0703C54.5602 49.5721 54.6462 49.0739 54.8182 48.5929C55.2998 47.167 56.4007 45.9817 58.0176 45.9817C59.3937 45.9817 60.2194 46.8063 60.5806 47.9401C60.7183 48.3867 60.7871 48.8849 60.7699 49.3831C60.7699 49.4518 60.7699 49.5034 60.7527 49.5721L59.5142 49.7782ZM64.4853 52.252C65.7582 52.252 66.6527 51.2385 67.0655 50.0187C67.0999 49.9329 67.1171 49.847 67.1516 49.7611L68.4417 49.5549C68.39 49.847 68.3212 50.1218 68.218 50.4139C67.6504 52.0802 66.3775 53.4717 64.4853 53.4717C62.8856 53.4717 61.9051 52.5097 61.4923 51.2041C61.4407 51.0495 61.4063 50.8777 61.3719 50.7059L62.576 50.5169C62.5932 50.62 62.6276 50.7403 62.662 50.8433C62.92 51.6507 63.5049 52.252 64.4853 52.252ZM67.3236 48.507C67.3236 48.0947 67.272 47.6824 67.1516 47.3045C66.8935 46.4799 66.3087 45.8786 65.3454 45.8786C64.0553 45.8786 63.1608 46.8922 62.748 48.1119C62.6276 48.4898 62.5416 48.8849 62.5072 49.28L61.2859 49.4862C61.3031 48.9021 61.4063 48.3009 61.5955 47.7339C62.1632 46.0504 63.4533 44.6589 65.3454 44.6589C66.9451 44.6589 67.9084 45.621 68.3212 46.9437C68.4589 47.3732 68.5277 47.8199 68.5449 48.3009L67.3236 48.507Z" fill="white"/>
<path fill-rule="evenodd" clip-rule="evenodd" d="M214.431 97.9946C223.032 97.9946 230.016 89.3021 230.016 78.5653C230.016 67.8457 223.032 59.136 214.431 59.136C205.83 59.136 198.847 67.8285 198.847 78.5653C198.847 89.3021 205.83 97.9946 214.431 97.9946ZM214.431 92.7722C220.727 92.7722 225.818 86.416 225.818 78.5825C225.818 70.7317 220.71 64.3755 214.431 64.3755C208.135 64.3755 203.044 70.7317 203.044 78.5825C203.044 86.416 208.135 92.7722 214.431 92.7722Z" fill="#6B7193"/>
<path fill-rule="evenodd" clip-rule="evenodd" d="M216.35 85.989C216.006 85.1301 215.748 84.6834 215.593 84.4258C215.18 83.7214 215.232 83.4809 215.765 82.8109C216.092 82.3986 216.367 82.0379 216.625 81.5912C216.952 81.0587 217.124 80.7667 217.692 80.8697C218.07 80.9384 218.363 81.2477 218.999 81.8833C219.842 82.725 220.616 83.5153 221.373 84.4601C221.923 85.1473 222.422 85.8516 222.852 86.5903C223.85 88.0849 223.936 87.5695 224.762 85.8344C225.002 85.3191 225.209 84.7693 225.381 84.2196C225.845 82.8109 225.811 82.7938 224.762 82.2956C223.127 81.5225 221.751 80.9384 219.98 80.4574C219.137 80.2341 218.638 80.1654 218.328 80.1138C217.537 80.0108 217.279 79.8218 217.331 78.98C217.348 78.8254 217.348 78.6021 217.348 78.3101C217.296 76.7811 217.331 76.7811 218.517 76.5922C218.81 76.5406 219.24 76.4719 219.876 76.283C221.631 75.7332 223.059 75.0804 224.693 74.2902C225.656 73.8264 225.69 73.8092 225.209 72.4692C224.848 71.4557 224.314 70.4937 223.798 69.5317C223.506 68.9819 223.557 68.5868 222.508 70.2703C222.061 70.9919 221.562 71.7134 221.029 72.4005C220.324 73.311 219.601 74.1012 218.81 74.9258C218.173 75.613 217.881 75.9394 217.503 75.9909C216.952 76.094 216.78 75.8191 216.47 75.3381C216.161 74.8399 215.817 74.462 215.404 74.0325C214.836 73.4484 214.819 73.1908 215.198 72.4864C216.436 70.236 216.901 67.9512 217.279 65.4603C217.451 64.2749 217.485 64.0688 216.04 63.8283C214.888 63.6221 213.718 63.6393 212.583 63.8626C211.534 64.0688 211.671 64.1375 212.308 65.7695C213.013 67.5904 213.409 69.9096 213.426 71.8852C213.426 72.6926 213.323 73.0877 212.48 73.311C211.826 73.4828 211.327 73.7577 210.828 74.2043C210.106 74.8743 209.693 74.4276 209.332 73.7233C208.833 72.7269 208.283 71.7821 207.646 70.8888C207.629 70.8544 205.72 68.3807 205.685 68.3807C205.341 68.415 203.552 72.6239 203.311 73.4656C202.899 74.943 202.813 74.9087 204.068 75.1148C205.169 75.3038 206.201 75.5614 207.268 75.905C209.332 76.5922 209.298 76.764 209.126 77.8978C209.005 78.7224 209.04 79.3408 209.263 80.131C209.538 81.1274 209.573 81.2477 208.093 82.0379C206.786 82.7422 205.53 83.2576 204.12 83.6871C203.26 83.9447 203.311 83.8073 203.604 84.6491C204.017 85.7142 204.447 86.6934 205.049 87.6554C205.737 88.7377 205.788 88.5143 206.459 87.7069C207.577 86.3841 208.506 84.9583 209.298 83.4294C209.676 82.6907 210.072 82.2269 210.828 82.914C211.413 83.3435 211.981 83.6183 212.635 83.8073C213.942 84.0822 213.632 85.5424 213.512 86.7277C213.357 88.3254 212.979 89.8886 212.359 91.3832C211.689 93.0152 211.517 93.1011 212.617 93.2557C213.787 93.4618 214.974 93.479 216.144 93.2557C217.675 92.9637 217.64 92.7232 217.52 91.3832C217.365 89.4248 217.09 87.8444 216.35 85.989ZM212.669 82.0379C214.2 82.0379 215.456 80.4918 215.456 78.5849C215.456 76.6781 214.217 75.1148 212.669 75.1148C211.121 75.1148 209.882 76.6609 209.882 78.5849C209.882 80.4918 211.138 82.0379 212.669 82.0379ZM218.775 91.2973C218.999 93.5649 219.051 93.9944 216.419 94.4926C215.129 94.7331 213.753 94.7331 212.463 94.4926C210.828 94.2005 210.364 93.9085 210.553 92.8778C210.656 92.3109 211.052 91.5378 211.293 90.9709C211.861 89.5966 212.205 88.1364 212.359 86.659C212.497 84.9583 212.738 85.3706 211.241 84.6491C210.072 84.0822 210.588 83.8417 209.796 85.1988C208.988 86.5903 208.111 87.7241 207.079 88.961C206.528 89.631 206.236 89.9745 205.737 89.9917C205.221 90.0089 204.928 89.6653 204.447 88.9094C203.655 87.6897 203.071 86.4872 202.537 85.1129C201.867 83.4122 202.107 83.0686 203.828 82.5533C205.169 82.141 206.356 81.6428 207.595 80.9728C208.179 80.6636 208.179 80.6292 208.128 80.4746C207.853 79.5126 207.818 78.7395 207.956 77.7432C207.99 77.4683 208.007 77.4339 206.907 77.056C205.668 76.6437 204.481 76.386 203.191 76.2143C201.523 75.9737 201.609 75.0117 201.97 73.8092C202.4 72.3662 204.154 67.3499 205.565 67.1782C205.995 67.1266 206.322 67.3499 206.752 67.8138C207.904 69.0678 208.919 70.4765 209.779 71.9539C210.519 73.2251 210.347 73.0362 211.086 72.5723C212.531 71.7993 212.308 72.7785 212.136 70.4765C212.033 69.0163 211.74 67.5733 211.207 66.2161C210.484 64.3608 209.968 63.1583 212.377 62.6773C213.667 62.4196 214.991 62.4024 216.281 62.6257C218.896 63.0724 218.844 63.4503 218.517 65.6321C218.208 67.6763 217.864 69.3771 217.107 71.3183C216.247 73.4313 216.212 72.9846 216.969 73.8951C217.623 74.6682 217.296 74.7884 217.95 74.0669C218.707 73.2595 219.412 72.5036 220.083 71.6275C220.582 70.9747 221.046 70.2875 221.493 69.5832C222.439 68.0715 223.471 66.3364 224.796 68.7586C225.364 69.8237 225.948 70.8716 226.361 72.0226C227.221 74.3933 227.135 74.4276 225.226 75.3553C223.54 76.1799 222.044 76.8499 220.238 77.4168C219.274 77.726 218.535 77.4511 218.552 78.2585C218.586 79.3236 218.982 78.9113 220.306 79.2721C222.113 79.7703 223.609 80.3887 225.278 81.1789C227.256 82.1238 227.325 82.141 226.533 84.5632C226.344 85.1473 226.12 85.7313 225.862 86.2982C225.604 86.8652 225.329 87.4149 225.02 87.9646C224.314 89.1843 223.901 89.5622 223.196 89.1671C222.869 88.9782 222.629 88.5659 222.267 87.9474C222.147 87.7241 221.992 87.4836 221.82 87.1916C221.39 86.4872 220.926 85.8172 220.427 85.1816C219.704 84.2711 218.947 83.5153 218.139 82.7079C217.485 82.0551 217.778 82.1238 217.227 82.8797C216.574 83.9963 216.557 83.1373 217.503 85.508C218.259 87.4836 218.569 89.2015 218.775 91.2973Z" fill="white"/>
<path fill-rule="evenodd" clip-rule="evenodd" d="M82.2693 54.0549C79.259 57.9373 77.2465 62.9879 76.6272 68.9662C76.266 72.3848 75.1479 73.0032 72.0001 72.9001H55.1944C53.1646 72.9001 51.2725 71.354 49.9308 69.8423L42.0525 60.8406C40.9 59.535 37.9242 59.6724 36.1697 59.6724H15.0808C13.7907 59.6724 12.5522 59.6552 12.0362 60.8234C9.93762 65.685 8.76793 71.4227 7.21981 76.0267C7.1166 76.3187 6.9962 76.5764 6.66937 76.5764H2.98828C3.12589 78.4833 3.55593 78.4489 3.59033 80.2183H4.74282C6.49735 80.2183 7.97667 78.174 8.44111 76.4905L12.0362 63.2799C12.3802 62.0431 13.7907 60.9093 15.0808 60.9093H36.1869C37.9242 60.9093 39.8852 61.8369 40.8484 63.2971L49.9479 77.1605C51.066 78.8612 53.1818 80.2183 55.2116 80.2183H72.0173C75.1651 80.3214 76.2832 79.703 76.6444 76.2844C78.227 61.5621 88.1005 50.1038 100.313 50.1038C112.561 50.1038 122.899 61.5792 124 76.4046C124.206 79.222 124.963 80.2011 127.801 80.2011H185.77C188.161 80.2011 189.313 78.9815 189.623 75.9751C191.085 61.3731 201.131 50.0866 213.258 50.0866C221.428 50.0866 228.532 55.2746 232.936 63.0223C233.968 64.8432 240.367 64.9978 243.876 61.2357C244.375 59.2257 243.308 55.7041 241.743 55.0341C238.492 57.2502 233.968 57.5422 232.936 55.7212C228.532 47.9736 221.428 45.2078 213.258 45.2078C201.131 45.2078 191.085 54.0549 189.623 68.6569C189.313 71.6633 188.161 72.8829 185.77 72.8829H127.801C124.963 72.8829 124.206 71.9038 124 69.0864C123.449 61.6308 120.267 55.9274 116.276 51.5296C112.974 47.8705 106.334 45.8434 119.355 44.0053C152.571 39.2982 202.575 37.0306 234.054 36.0171C232.437 34.0415 224.077 22.6347 220.396 18.1682C222.563 23.9747 214.857 28.1491 208.355 28.7161C183.258 30.8978 98.0257 33.6807 82.2693 54.0549Z" fill="#FAF9F4"/>
<path fill-rule="evenodd" clip-rule="evenodd" d="M233.996 29.5914C234.908 29.9349 235.579 30.5877 235.923 31.378L239.191 37.2703C239.948 38.8851 239.208 39.933 238.348 41.2386H235.372C235.028 41.2386 234.684 41.1356 234.34 40.9122L225.963 33.9376C224.811 33.1989 224.277 31.4982 224.862 30.3644L227.253 27.1863C227.339 26.9458 233.343 29.3509 233.996 29.5914Z" fill="#E84E0F"/>
<path fill-rule="evenodd" clip-rule="evenodd" d="M233.998 29.5955C234.91 29.9391 235.58 30.5919 235.924 31.3821L237.421 34.0964L228.769 34.5774L226.601 32.6705C224.692 31.4508 226.051 28.6506 227.238 27.0702C228.167 27.3107 233.275 29.3206 233.998 29.5955Z" fill="#F8B472"/>
<path fill-rule="evenodd" clip-rule="evenodd" d="M127.871 77.6738C127.922 77.794 127.871 77.9314 127.75 78.0002C127.63 78.0517 127.492 78.0002 127.424 77.8799C124.516 71.6096 124.74 62.1612 124.929 53.6061C125.119 45.2229 125.308 37.6813 122.538 34.8984C122.435 34.8125 122.435 34.6407 122.538 34.5548C122.624 34.4689 122.779 34.4689 122.882 34.5548C125.789 37.4924 125.617 45.137 125.428 53.6233C125.239 62.1097 125.015 71.4894 127.871 77.6738Z" fill="#C8C7C4"/>
<path fill-rule="evenodd" clip-rule="evenodd" d="M211.853 27.7701C211.749 27.6842 211.732 27.5296 211.818 27.4265C211.904 27.3234 212.059 27.3063 212.162 27.3922C212.506 27.6842 212.799 27.9762 213.074 28.2855C213.366 28.5947 213.607 28.9211 213.831 29.2303C215.809 32.0992 215.465 35.3975 213.831 38.5241C212.214 41.6163 209.341 44.5195 206.245 46.6669L206.228 46.684C206.107 46.7699 205.97 46.7356 205.884 46.6153C205.798 46.4951 205.832 46.3576 205.953 46.2717L205.97 46.2546C209.014 44.1587 211.818 41.307 213.401 38.2836C214.949 35.3116 215.293 32.1851 213.418 29.488C213.211 29.1788 212.971 28.8867 212.695 28.5947C212.455 28.337 212.162 28.045 211.853 27.7701Z" fill="#C8C7C4"/>
<path fill-rule="evenodd" clip-rule="evenodd" d="M128.567 32.4766C133.659 32.425 143.911 32.3563 143.532 27.0996C143.412 25.5363 142.896 23.8528 141.107 23.5607C139.249 23.2515 135.688 23.0454 132.936 23.1656C129.479 23.3202 128.825 23.9902 127.036 26.7388C125.557 29.0065 124.834 31.6864 128.567 32.4766Z" fill="#E3F0F5"/>
<path fill-rule="evenodd" clip-rule="evenodd" d="M143.501 26.9285C143.363 25.4167 142.813 23.8534 141.092 23.5786C139.235 23.2693 135.674 23.0632 132.922 23.1835C129.464 23.3381 128.811 24.008 127.022 26.7567L126.901 26.9456H143.501V26.9285Z" fill="#92C1DB"/>
<path fill-rule="evenodd" clip-rule="evenodd" d="M174.004 31.5467C173.935 31.4264 173.969 31.2718 174.09 31.2031C174.21 31.1344 174.365 31.1688 174.434 31.289C177.685 36.666 176.79 48.193 175.913 59.4967C175.363 66.6088 174.812 73.6521 175.328 78.9604C175.346 79.0978 175.242 79.2181 175.105 79.2353C174.967 79.2524 174.847 79.1494 174.829 79.0119C174.331 73.6521 174.864 66.5916 175.414 59.4624C176.292 48.2274 177.169 36.7862 174.004 31.5467Z" fill="#C8C7C4"/>
<path fill-rule="evenodd" clip-rule="evenodd" d="M51.4751 70.6163L64.2041 68.7095C66.3199 68.4003 70.0354 76.5774 67.1627 76.5774H54.8294C52.4212 76.5774 49.583 71.0286 51.4751 70.6163Z" fill="#152F4E"/>
<g filter="url(#filter0_d)">
<ellipse cx="11.5499" cy="37.4615" rx="7.03327" ry="7.02408" fill="#ED6A00"/>
<path d="M18.3331 37.4615C18.3331 41.2024 15.2965 44.2355 11.5499 44.2355C7.80327 44.2355 4.7666 41.2024 4.7666 37.4615C4.7666 33.7205 7.80327 30.6874 11.5499 30.6874C15.2965 30.6874 18.3331 33.7205 18.3331 37.4615Z" stroke="white" stroke-width="0.5"/>
</g>
<path d="M12.2482 36.7812H14.1078V38.1239H12.2482V40.2229H10.8316V38.1239H8.9668V36.7812H10.8316V34.7697H12.2482V36.7812Z" fill="white"/>
<g filter="url(#filter1_d)">
<ellipse cx="119.393" cy="77.2651" rx="7.03327" ry="7.02408" fill="#ED6A00"/>
<path d="M126.176 77.2651C126.176 81.006 123.139 84.0391 119.393 84.0391C115.646 84.0391 112.609 81.006 112.609 77.2651C112.609 73.5241 115.646 70.491 119.393 70.491C123.139 70.491 126.176 73.5241 126.176 77.2651Z" stroke="white" stroke-width="0.5"/>
</g>
<path d="M120.088 76.5833H121.948V77.9261H120.088V80.025H118.671V77.9261H116.807V76.5833H118.671V74.5718H120.088V76.5833Z" fill="white"/>
<g filter="url(#filter2_d)">
<ellipse cx="217.858" cy="7.02408" rx="7.03327" ry="7.02408" fill="#ED6A00"/>
<path d="M224.642 7.02408C224.642 10.765 221.605 13.7982 217.858 13.7982C214.112 13.7982 211.075 10.765 211.075 7.02408C211.075 3.28317 214.112 0.25 217.858 0.25C221.605 0.25 224.642 3.28317 224.642 7.02408Z" stroke="white" stroke-width="0.5"/>
</g>
<path d="M218.557 6.34381H220.416V7.68655H218.557V9.78554H217.14V7.68655H215.275V6.34381H217.14V4.33228H218.557V6.34381Z" fill="white"/>
<g filter="url(#filter3_d)">
<ellipse cx="174.487" cy="39.8034" rx="7.03327" ry="7.02408" fill="#ED6A00"/>
<path d="M181.271 39.8034C181.271 43.5443 178.234 46.5775 174.487 46.5775C170.741 46.5775 167.704 43.5443 167.704 39.8034C167.704 36.0625 170.741 33.0293 174.487 33.0293C178.234 33.0293 181.271 36.0625 181.271 39.8034Z" stroke="white" stroke-width="0.5"/>
</g>
<path d="M175.184 39.1231H177.043V40.4658H175.184V42.5648H173.767V40.4658H171.902V39.1231H173.767V37.1116H175.184V39.1231Z" fill="white"/>
<defs>
<filter id="filter0_d" x="0.516602" y="30.4374" width="22.0665" height="22.0482" filterUnits="userSpaceOnUse" color-interpolation-filters="sRGB">
<feFlood flood-opacity="0" result="BackgroundImageFix"/>
<feColorMatrix in="SourceAlpha" type="matrix" values="0 0 0 0 0 0 0 0 0 0 0 0 0 0 0 0 0 0 127 0"/>
<feOffset dy="4"/>
<feGaussianBlur stdDeviation="2"/>
<feColorMatrix type="matrix" values="0 0 0 0 0 0 0 0 0 0 0 0 0 0 0 0 0 0 0.25 0"/>
<feBlend mode="normal" in2="BackgroundImageFix" result="effect1_dropShadow"/>
<feBlend mode="normal" in="SourceGraphic" in2="effect1_dropShadow" result="shape"/>
</filter>
<filter id="filter1_d" x="108.359" y="70.241" width="22.0665" height="22.0482" filterUnits="userSpaceOnUse" color-interpolation-filters="sRGB">
<feFlood flood-opacity="0" result="BackgroundImageFix"/>
<feColorMatrix in="SourceAlpha" type="matrix" values="0 0 0 0 0 0 0 0 0 0 0 0 0 0 0 0 0 0 127 0"/>
<feOffset dy="4"/>
<feGaussianBlur stdDeviation="2"/>
<feColorMatrix type="matrix" values="0 0 0 0 0 0 0 0 0 0 0 0 0 0 0 0 0 0 0.25 0"/>
<feBlend mode="normal" in2="BackgroundImageFix" result="effect1_dropShadow"/>
<feBlend mode="normal" in="SourceGraphic" in2="effect1_dropShadow" result="shape"/>
</filter>
<filter id="filter2_d" x="206.825" y="0" width="22.0665" height="22.0482" filterUnits="userSpaceOnUse" color-interpolation-filters="sRGB">
<feFlood flood-opacity="0" result="BackgroundImageFix"/>
<feColorMatrix in="SourceAlpha" type="matrix" values="0 0 0 0 0 0 0 0 0 0 0 0 0 0 0 0 0 0 127 0"/>
<feOffset dy="4"/>
<feGaussianBlur stdDeviation="2"/>
<feColorMatrix type="matrix" values="0 0 0 0 0 0 0 0 0 0 0 0 0 0 0 0 0 0 0.25 0"/>
<feBlend mode="normal" in2="BackgroundImageFix" result="effect1_dropShadow"/>
<feBlend mode="normal" in="SourceGraphic" in2="effect1_dropShadow" result="shape"/>
</filter>
<filter id="filter3_d" x="163.454" y="32.7793" width="22.0665" height="22.0482" filterUnits="userSpaceOnUse" color-interpolation-filters="sRGB">
<feFlood flood-opacity="0" result="BackgroundImageFix"/>
<feColorMatrix in="SourceAlpha" type="matrix" values="0 0 0 0 0 0 0 0 0 0 0 0 0 0 0 0 0 0 127 0"/>
<feOffset dy="4"/>
<feGaussianBlur stdDeviation="2"/>
<feColorMatrix type="matrix" values="0 0 0 0 0 0 0 0 0 0 0 0 0 0 0 0 0 0 0.25 0"/>
<feBlend mode="normal" in2="BackgroundImageFix" result="effect1_dropShadow"/>
<feBlend mode="normal" in="SourceGraphic" in2="effect1_dropShadow" result="shape"/>
</filter>
</defs>
</svg>
